<svg width="15" height="16" viewBox="0 0 15 16" fill="none" xmlns="http://www.w3.org/2000/svg">
<path d="M7.21593 0.329071L6.77574 0.984058C6.77574 0.984058 6.4839 1.39921 6.20073 1.89707C6.05888 2.14683 5.92568 2.40761 5.81144 2.67225C5.69774 2.93689 5.59162 3.18058 5.59162 3.49925C5.59162 4.4062 6.32526 5.15326 7.21593 5.15326C8.10659 5.15326 8.84024 4.4062 8.84024 3.49925C8.84024 3.18058 8.73466 2.93689 8.62041 2.67225C8.50617 2.40761 8.37298 2.14683 8.23112 1.89707C7.94795 1.39921 7.65557 0.983507 7.65557 0.983507L7.21593 0.329071ZM7.21593 5.15326H5.59162V7.35861H2.343C1.14642 7.35861 0.177253 8.3455 0.177253 9.56395C0.175899 10.103 0.36851 10.624 0.71869 11.0283V15.0773H13.7132V11.0283C14.0633 10.624 14.256 10.103 14.2546 9.56395C14.2546 8.3455 13.2854 7.35861 12.0889 7.35861H8.84024V5.15326H7.21593ZM7.21593 2.32766C7.25166 2.38831 7.24787 2.3839 7.28361 2.44841C7.41247 2.67445 7.54999 2.91539 7.63879 3.11993C7.72758 3.32503 7.75736 3.51414 7.75736 3.49925C7.75736 3.80525 7.51642 4.05059 7.21593 4.05059C6.91543 4.05059 6.67449 3.80525 6.67449 3.49925C6.67449 3.51414 6.70427 3.32503 6.79307 3.11993C6.88186 2.91594 7.01939 2.67445 7.14825 2.44841C7.18398 2.3839 7.18019 2.38776 7.21593 2.32766ZM6.67449 6.25593H7.75736V7.35861H6.67449V6.25593ZM2.343 8.46128H12.0889C12.7337 8.46128 13.1717 8.90731 13.1717 9.56395C13.1717 10.2206 12.7337 10.6666 12.0889 10.6666C11.444 10.6666 11.006 10.2206 11.006 9.56395H9.92311C9.92311 10.2206 9.48509 10.6666 8.84024 10.6666C8.19539 10.6666 7.75736 10.2206 7.75736 9.56395H6.67449C6.67449 10.2206 6.23647 10.6666 5.59162 10.6666C4.94677 10.6666 4.50874 10.2206 4.50874 9.56395H3.42587C3.42587 10.2206 2.98785 10.6666 2.343 10.6666C1.69815 10.6666 1.26013 10.2206 1.26013 9.56395C1.26013 8.90731 1.69815 8.46128 2.343 8.46128ZM3.96731 11.0283C4.17083 11.2622 4.42096 11.4493 4.70104 11.5771C4.98112 11.7048 5.28472 11.7704 5.59162 11.7693C5.89852 11.7704 6.20212 11.7048 6.4822 11.5771C6.76227 11.4493 7.0124 11.2622 7.21593 11.0283C7.41945 11.2622 7.66958 11.4493 7.94966 11.5771C8.22974 11.7048 8.53334 11.7704 8.84024 11.7693C9.14714 11.7704 9.45074 11.7048 9.73081 11.5771C10.0109 11.4493 10.261 11.2622 10.4645 11.0283C10.6681 11.2622 10.9182 11.4493 11.1983 11.5771C11.4784 11.7048 11.782 11.7704 12.0889 11.7693C12.2773 11.7693 12.457 11.7285 12.6303 11.6833V13.9746H1.80156V11.6833C1.97482 11.7285 2.15458 11.7693 2.343 11.7693C2.6499 11.7704 2.9535 11.7048 3.23358 11.5771C3.51366 11.4493 3.76379 11.2622 3.96731 11.0283Z" fill="#FEC6E8"/>
</svg>
