<svg width="10" height="12" viewBox="0 0 10 12" fill="none" xmlns="http://www.w3.org/2000/svg">
<path d="M0.980556 10.2307C-0.27338 8.97673 -0.27338 6.94734 0.980556 5.6934L5.31159 1.36237C6.22316 0.450794 7.69984 0.450794 8.61142 1.36237C9.523 2.27395 9.523 3.75063 8.61142 4.6622L5.10535 8.16828C4.53612 8.7375 3.61217 8.7375 3.04295 8.16828C2.47373 7.59905 2.47373 6.6751 3.04295 6.10588L6.13654 3.01229L6.9615 3.83725L3.83079 6.96796C3.60392 7.19483 4.0164 7.6073 4.24326 7.38044L7.78646 3.83725C8.24019 3.38352 8.24019 2.64106 7.78646 2.18733C7.33273 1.7336 6.59027 1.7336 6.13654 2.18733L1.80551 6.51836C1.00943 7.31444 1.00943 8.60963 1.80551 9.40571C2.6016 10.2018 3.89678 10.2018 4.69287 9.40571L8.61142 5.48716L9.43638 6.31212L5.51782 10.2307C4.26389 11.4846 2.23449 11.4846 0.980556 10.2307Z" fill="#19191B" fill-opacity="0.68"/>
</svg>
