<svg width="13" height="11" viewBox="0 0 13 11" fill="none" xmlns="http://www.w3.org/2000/svg">
<path d="M12.272 0.926056H0.834204C0.590875 0.926056 0.394287 1.12624 0.394287 1.37402V10.3332C0.394287 10.581 0.590875 10.7812 0.834204 10.7812H12.272C12.5154 10.7812 12.712 10.581 12.712 10.3332V1.37402C12.712 1.12624 12.5154 0.926056 12.272 0.926056ZM10.9729 1.93537L6.55313 5.43366L2.13333 1.93537H10.9729ZM11.7222 2.47712V9.77328H1.3841V2.47712L1.00467 2.17615L1.38273 2.47572L6.07884 6.19379C6.21389 6.30063 6.38004 6.35863 6.55106 6.35863C6.72208 6.35863 6.88824 6.30063 7.02329 6.19379L11.7222 2.47712L12.1016 2.17615L11.5613 1.46921H11.5627L12.103 2.17615L11.7222 2.47712Z" fill="#FEC6E8"/>
</svg>
