<svg width="15" height="15" viewBox="0 0 15 15" fill="none" xmlns="http://www.w3.org/2000/svg">
<path d="M13.8732 7.45512L11.8798 13.7344C11.7515 13.9768 11.5682 14.1843 11.3299 14.3568C11.0916 14.5293 10.8258 14.6202 10.5326 14.6295C10.2759 14.6202 10.0193 14.5246 9.76271 14.3428C9.50609 14.161 9.33196 13.9582 9.24031 13.7344L7.24693 7.45512C7.03614 6.91436 6.99261 6.48082 7.11633 6.1545C7.24006 5.82818 7.46689 5.66502 7.79683 5.66502H13.3233C13.6532 5.66502 13.8801 5.82818 14.0038 6.1545C14.1275 6.48082 14.084 6.91436 13.8732 7.45512ZM10.4913 14.6295H10.5738H10.4913ZM7.92056 2.97988C7.92056 2.23401 8.17947 1.60002 8.69728 1.0779C9.2151 0.555794 9.83832 0.294739 10.5669 0.294739C11.2955 0.294739 11.9165 0.555794 12.4297 1.0779C12.9429 1.60002 13.1996 2.23401 13.1996 2.97988C13.1996 3.72575 12.9429 4.35974 12.4297 4.88186C11.9165 5.40397 11.2955 5.66502 10.5669 5.66502C9.83832 5.66502 9.2151 5.40397 8.69728 4.88186C8.17947 4.35974 7.92056 3.72575 7.92056 2.97988ZM6.28461 14.6295H0.744406C0.423633 14.6295 0.201383 14.4663 0.0776566 14.14C-0.0460701 13.8137 -0.00711912 13.3801 0.19451 12.8394L2.61405 5.4972C2.10082 5.30141 1.68152 4.97509 1.35617 4.51824C1.03081 4.0614 0.868133 3.54861 0.868133 2.97988C0.868133 2.23401 1.12704 1.60002 1.64486 1.0779C2.16268 0.555794 2.7859 0.294739 3.51451 0.294739C4.24312 0.294739 4.86634 0.555794 5.38416 1.0779C5.90198 1.60002 6.16089 2.23401 6.16089 2.97988C6.16089 3.55793 5.99363 4.07771 5.65911 4.53922C5.32459 5.00073 4.89612 5.32472 4.37372 5.51119L6.83451 12.8394C7.0453 13.3801 7.08655 13.8137 6.95824 14.14C6.82993 14.4663 6.60539 14.6295 6.28461 14.6295Z" fill="#FEC6E8"/>
</svg>
