<svg width="10" height="12" viewBox="0 0 10 12" fill="none" xmlns="http://www.w3.org/2000/svg">
<path d="M8.66921 7.32195C7.64773 6.9936 7.93851 6.73221 8.91337 6.35928C9.38034 6.18032 9.09637 5.80292 9.10913 5.50099C9.11485 5.36279 9.64847 5.39034 9.60976 4.85727C9.58248 4.48188 8.77039 3.94702 8.54911 3.71878C8.42132 3.58708 8.80955 3.2267 8.53614 2.90976C8.16287 2.47659 8.10392 1.72289 7.87802 1.30136C7.87802 1.30136 8.05025 1.03348 7.91827 0.881173C6.77977 -0.431127 2.53127 -0.310626 1.44555 1.62076C0.226763 3.78889 0.210486 6.78552 2.74463 8.39997C3.8717 9.11782 2.42811 11.66 2.42811 11.66H6.89745C6.89745 11.2259 6.39902 9.66882 7.27138 9.7387C8.02935 9.7994 8.95758 9.76602 8.87531 8.89429C8.85046 8.63134 8.8212 8.39459 9.00157 8.17666C9.18194 7.95895 9.44303 7.57057 8.66921 7.32195Z" fill="#FEC6E8"/>
</svg>
