<svg width="210" height="171" viewBox="0 0 210 171" fill="none" xmlns="http://www.w3.org/2000/svg">
<g clip-path="url(#clip0_2_477)">
<path d="M152.211 39.8605C152.377 36.0542 153.749 32.4695 156.045 29.8457C158.341 27.2219 161.386 25.7592 164.552 25.7591C164.927 25.7591 165.298 25.7827 165.665 25.8222C167.109 22.8319 169.179 20.35 171.668 18.6244C174.158 16.8987 176.98 15.9897 179.852 15.988C182.725 15.9864 185.548 16.8922 188.039 18.6151C190.529 20.3379 192.601 22.8174 194.047 25.806C194.357 25.778 194.669 25.7591 194.984 25.7591C198.15 25.7592 201.195 27.2219 203.491 29.8457C205.787 32.4695 207.159 36.0542 207.325 39.8605" fill="#F2F2F2"/>
<path d="M154.785 38.7158C154.951 34.9095 156.323 31.3248 158.619 28.701C160.915 26.0772 163.96 24.6144 167.126 24.6143C167.502 24.6143 167.872 24.6379 168.239 24.6774C169.683 21.6872 171.753 19.2053 174.242 17.4796C176.732 15.754 179.554 14.8449 182.426 14.8433C185.299 14.8417 188.122 15.7475 190.613 17.4703C193.103 19.1931 195.175 21.6727 196.621 24.6613C196.931 24.6333 197.243 24.6143 197.558 24.6143C200.724 24.6144 203.769 26.0772 206.065 28.701C208.361 31.3248 209.733 34.9095 209.899 38.7158" stroke="#3F3D56" stroke-miterlimit="10"/>
<path d="M14.473 123.709C15.5845 97.7079 33.4458 77.0369 55.3176 77.0369C56.5607 77.0369 57.7882 77.1149 59.003 77.2457C63.7809 67.3486 70.6319 59.1341 78.8716 53.4226C87.1113 47.711 96.4514 44.7023 105.959 44.6968C115.467 44.6914 124.809 47.6895 133.053 53.3917C141.298 59.0939 148.155 67.3006 152.941 77.1922C153.966 77.0995 154.997 77.0369 156.042 77.0369C177.914 77.0369 195.775 97.7079 196.887 123.709" fill="#F2F2F2"/>
<path d="M22.991 119.921C24.1024 93.9198 41.9637 73.2488 63.8355 73.2488C65.0786 73.2488 66.3061 73.3269 67.5209 73.4576C72.2989 63.5606 79.1498 55.3461 87.3895 49.6345C95.6293 43.9229 104.969 40.9142 114.477 40.9088C123.985 40.9034 133.327 43.9015 141.571 49.6037C149.816 55.3059 156.673 63.5126 161.459 73.4041C162.484 73.3115 163.515 73.2488 164.56 73.2488C186.432 73.2488 204.293 93.9199 205.404 119.921" stroke="#3F3D56" stroke-miterlimit="10"/>
<path d="M0 33.9722C0.223857 28.8221 2.08068 23.9718 5.1875 20.4217C8.29433 16.8715 12.4142 14.8923 16.6975 14.8922C17.2056 14.8922 17.7075 14.9241 18.2041 14.9776C20.1573 10.9316 22.958 7.57347 26.3265 5.23854C29.6949 2.90362 33.5132 1.67363 37.4 1.67142C41.2868 1.66921 45.106 2.89485 48.4763 5.22594C51.8466 7.55702 54.6499 10.912 56.6063 14.9557C57.0253 14.9178 57.4471 14.8922 57.8741 14.8922C62.1574 14.8923 66.2773 16.8715 69.3841 20.4217C72.4909 23.9718 74.3477 28.8221 74.5716 33.9722" fill="#F2F2F2"/>
<path d="M3.48303 32.4236C3.70689 27.2734 5.56371 22.4231 8.67054 18.873C11.7774 15.3229 15.8973 13.3437 20.1805 13.3436C20.6887 13.3436 21.1905 13.3755 21.6871 13.4289C23.6404 9.38296 26.4411 6.02482 29.8095 3.6899C33.178 1.35498 36.9962 0.124988 40.883 0.122775C44.7698 0.120563 48.5891 1.3462 51.9593 3.67729C55.3296 6.00838 58.1329 9.36332 60.0894 13.4071C60.5083 13.3692 60.9301 13.3436 61.3572 13.3436C65.6404 13.3437 69.7603 15.3229 72.8671 18.873C75.974 22.4231 77.8308 27.2734 78.0546 32.4236" stroke="#3F3D56" stroke-miterlimit="10"/>
<path d="M83.7543 57.8181C83.7543 57.8181 86.607 66.1598 82.3279 68.1226C82.3279 68.1226 88.441 71.3121 89.8674 70.576C91.2938 69.84 92.3126 68.1226 92.3126 67.6319C92.3126 67.1412 90.8862 66.8958 90.8862 66.8958C90.8862 66.8958 88.2372 67.1412 90.2749 59.0448L83.7543 57.8181Z" fill="#FBBEBE"/>
<path d="M87.0145 62.2343C89.828 62.2343 92.1088 59.4881 92.1088 56.1006C92.1088 52.7131 89.828 49.967 87.0145 49.967C84.2011 49.967 81.9203 52.7131 81.9203 56.1006C81.9203 59.4881 84.2011 62.2343 87.0145 62.2343Z" fill="#FBBEBE"/>
<path d="M83.6527 62.3569C86.1286 62.3569 88.1357 58.9518 88.1357 54.7512C88.1357 50.5507 86.1286 47.1455 83.6527 47.1455C81.1769 47.1455 79.1698 50.5507 79.1698 54.7512C79.1698 58.9518 81.1769 62.3569 83.6527 62.3569Z" fill="#FF6584"/>
<path d="M80.392 59.9036C82.8679 59.9036 84.8749 56.4984 84.8749 52.2979C84.8749 48.0974 82.8679 44.6922 80.392 44.6922C77.9161 44.6922 75.9091 48.0974 75.9091 52.2979C75.9091 56.4984 77.9161 59.9036 80.392 59.9036Z" fill="#FF6584"/>
<path d="M75.9092 50.5802C77.1471 50.5802 78.1507 48.8777 78.1507 46.7774C78.1507 44.6771 77.1471 42.9745 75.9092 42.9745C74.6713 42.9745 73.6677 44.6771 73.6677 46.7774C73.6677 48.8777 74.6713 50.5802 75.9092 50.5802Z" fill="#FF6584"/>
<path d="M92.109 66.6503C92.109 66.6503 93.3316 63.7062 97.8146 62.2341C102.298 60.762 111.06 43.0972 111.06 43.0972C111.06 43.0972 110.652 32.5474 112.69 35.7368C114.727 38.9263 113.097 45.3053 113.097 45.3053L107.839 56.2405C106.858 58.2815 105.631 60.1358 104.197 61.7427C100.946 65.3859 95.1379 71.8026 94.5542 71.8026C93.7392 71.8026 92.109 66.6503 92.109 66.6503Z" fill="#FBBEBE"/>
<path d="M84.9769 108.604C84.9769 108.604 86.4033 129.459 85.9958 131.422C85.5882 133.384 84.3656 137.31 86.4033 148.841C88.441 160.372 85.9958 159.636 85.9958 159.636L92.5164 163.071C92.5164 163.071 90.2749 149.822 90.6825 146.142C91.09 142.462 90.8862 134.856 92.1089 129.704C93.3315 124.552 93.5353 110.077 93.5353 110.077L84.9769 108.604Z" fill="#FBBEBE"/>
<path opacity="0.1" d="M84.9769 108.604C84.9769 108.604 86.4033 129.459 85.9958 131.422C85.5882 133.384 84.3656 137.31 86.4033 148.841C88.441 160.372 85.9958 159.636 85.9958 159.636L92.5164 163.071C92.5164 163.071 90.2749 149.822 90.6825 146.142C91.09 142.462 90.8862 134.856 92.1089 129.704C93.3315 124.552 93.5353 110.077 93.5353 110.077L84.9769 108.604Z" fill="black"/>
<path d="M92.2636 160.417C91.7583 160.839 90.4606 161.268 88.0343 158.164C88.0343 158.164 86.6079 155.711 85.3853 158.164C84.1627 160.618 84.9778 160.863 85.7928 162.09C86.5797 163.274 92.8732 171.317 95.5082 170.99C95.5998 170.98 95.6901 170.957 95.7776 170.922C98.2228 169.941 94.7587 166.751 94.7587 166.751C94.7587 166.751 92.4876 162.544 92.4747 160.558C92.4754 160.528 92.4692 160.498 92.4569 160.472C92.4446 160.446 92.4265 160.425 92.4047 160.41C92.3829 160.395 92.3583 160.388 92.3334 160.39C92.3085 160.391 92.2843 160.4 92.2636 160.417Z" fill="#3F3D56"/>
<path d="M80.0864 106.151C80.0864 106.151 76.6223 115.72 75.1959 120.626C74.4471 123.203 72.1818 124.02 70.1987 124.216C67.7467 124.446 65.3648 125.31 63.2157 126.75C60.3637 128.677 56.472 130.865 54.0039 130.44C49.7247 129.704 53.1888 137.801 53.1888 137.801C53.1888 137.801 59.5056 133.139 65.415 132.648C71.3243 132.158 77.6412 131.422 80.4939 127.005C83.3467 122.589 90.2749 108.605 90.2749 108.605L80.0864 106.151Z" fill="#FBBEBE"/>
<path d="M53.3929 136.574C53.3929 136.574 51.3552 134.856 52.9853 133.139C54.6155 131.422 55.2268 129.949 55.2268 129.949C55.2268 129.949 52.374 126.269 51.3552 128.232C50.3363 130.195 45.8534 139.027 46.8722 141.726C47.8911 144.425 48.9099 145.161 50.1326 142.217C51.3552 139.273 54.4386 136.955 54.4386 136.955L53.3929 136.574Z" fill="#3F3D56"/>
<path d="M91.2931 67.877C91.2931 67.877 90.6157 69.5082 84.3207 67.9377C83.4909 67.7175 82.6239 67.8325 81.8538 68.265C81.0837 68.6975 80.4534 69.4234 80.0603 70.3305C79.2707 72.2319 79.1688 74.992 81.9197 78.4269C81.9197 78.4269 86.8102 85.0512 84.3649 87.75C81.9197 90.4488 95.9798 86.0326 95.9798 86.0326C95.9798 86.0326 94.1459 84.5605 95.776 80.1443C97.0569 76.6744 96.954 74.7192 95.9615 73.2075C95.3624 72.2671 94.9549 71.1706 94.7717 70.0061C94.4935 68.3638 93.8061 66.3056 92.1082 66.1596C92.1082 66.1596 90.3233 66.0337 90.1969 66.5874C90.0705 67.141 91.7006 67.6317 91.2931 67.877Z" fill="#EA058D"/>
<path d="M83.8431 73.0818C83.801 72.7358 83.7495 72.3921 83.7134 72.0451C83.5903 70.8606 83.1226 67.9906 81.5045 68.4844C79.4747 69.1039 77.2332 75.2375 77.2332 75.2375C77.2332 75.2375 75.3993 82.1072 72.7502 83.8246C70.1012 85.542 62.7655 94.3745 62.7655 94.3745C62.7655 94.3745 56.6524 96.3372 58.8939 98.3C61.1354 100.263 63.9881 97.0732 63.9881 97.0732L71.1952 91.8668C73.716 90.0411 75.8834 87.5875 77.552 84.6705C79.0534 82.0523 80.9336 79.0264 82.125 78.0266C82.8466 77.4457 83.3881 76.5934 83.6649 75.6028C83.8825 74.7897 83.9434 73.9275 83.8431 73.0818Z" fill="#FBBEBE"/>
<path d="M85.5881 87.2594C85.5881 87.2594 76.2147 85.7873 70.9166 93.393C65.6186 100.999 61.747 98.7906 62.1545 100.017C62.5621 101.244 82.124 115.719 93.5351 114.002C100.482 112.956 104.182 112.002 106.013 111.415C106.799 111.172 107.492 110.612 107.977 109.828C108.249 109.395 108.586 109.026 108.971 108.742C109.168 108.586 109.338 108.384 109.469 108.147C109.6 107.911 109.691 107.645 109.735 107.365C109.779 107.086 109.776 106.798 109.726 106.52C109.677 106.242 109.581 105.979 109.445 105.746C106.213 100.117 97.4396 85.2038 94.9615 84.8059C91.9049 84.3152 85.5881 87.2594 85.5881 87.2594Z" fill="#EA058D"/>
<path d="M87.1168 52.2978C88.9174 52.2978 90.3771 51.0346 90.3771 49.4763C90.3771 47.9181 88.9174 46.6548 87.1168 46.6548C85.3161 46.6548 83.8564 47.9181 83.8564 49.4763C83.8564 51.0346 85.3161 52.2978 87.1168 52.2978Z" fill="#FF6584"/>
<path d="M152.184 24.3352C152.392 23.0406 152.676 21.7654 153.034 20.5193C153.402 19.3066 153.868 18.2721 154.387 18.2721C155.646 18.2721 149.981 11.8301 149.981 11.8301C149.981 11.8301 149.625 12.6259 149.037 13.6983C148.602 14.499 148.131 15.2706 147.627 16.0098C146.955 17.0315 146.157 17.9224 145.26 18.6511C142.742 20.5458 152.184 24.3352 152.184 24.3352Z" fill="#A0616A"/>
<path d="M168.853 49.4548C168.853 49.4548 181.473 59.0559 177.585 60.6335C173.696 62.2111 167.254 50.9316 167.254 50.9316L168.853 49.4548Z" fill="#A0616A"/>
<path d="M151.923 27.6469C151.923 27.6469 157.968 32.954 159.735 36.9911C161.501 41.0281 170.685 49.9992 170.685 49.9992C170.685 49.9992 168.789 54.5101 167.872 54.238C166.956 53.9659 148.056 37.0367 146.067 35.6658C144.079 34.295 147.109 25.8276 151.923 27.6469Z" fill="#EA058D"/>
<path opacity="0.1" d="M151.923 27.6469C151.923 27.6469 157.968 32.954 159.735 36.9911C161.501 41.0281 170.685 49.9992 170.685 49.9992C170.685 49.9992 168.789 54.5101 167.872 54.238C166.956 53.9659 148.056 37.0367 146.067 35.6658C144.079 34.295 147.109 25.8276 151.923 27.6469Z" fill="black"/>
<path d="M169.809 37.2195C169.809 37.2195 183.972 42.9037 180.51 45.5563C177.048 48.2089 168.55 39.1142 168.55 39.1142L169.809 37.2195Z" fill="#A0616A"/>
<path d="M160.682 114.903C160.682 114.903 166.662 111.872 166.032 116.419C165.403 120.966 162.57 125.135 162.57 127.408C162.57 129.682 157.22 134.608 156.275 133.471C155.331 132.335 157.849 127.787 157.22 125.135C156.59 122.482 155.961 116.419 155.961 116.419L160.682 114.903Z" fill="#55536E"/>
<path opacity="0.1" d="M160.682 114.903C160.682 114.903 166.662 111.872 166.032 116.419C165.403 120.966 162.57 125.135 162.57 127.408C162.57 129.682 157.22 134.608 156.275 133.471C155.331 132.335 157.849 127.787 157.22 125.135C156.59 122.482 155.961 116.419 155.961 116.419L160.682 114.903Z" fill="black"/>
<path d="M158.793 118.314C158.793 118.314 164.773 115.282 164.144 119.829C163.514 124.377 160.682 128.545 160.682 130.819C160.682 133.093 155.331 138.019 154.387 136.882C153.443 135.745 155.961 131.198 155.331 128.545C154.702 125.893 154.072 119.829 154.072 119.829L158.793 118.314Z" fill="#55536E"/>
<path d="M144.946 90.6505C144.946 90.6505 163.515 111.871 162.885 113.766C162.256 115.661 158.164 119.829 158.164 119.829C158.164 119.829 144.002 97.4715 144.946 90.6505Z" fill="#3F3D56"/>
<path opacity="0.1" d="M144.946 90.6505C144.946 90.6505 163.515 111.871 162.885 113.766C162.256 115.661 158.164 119.829 158.164 119.829C158.164 119.829 144.002 97.4715 144.946 90.6505Z" fill="black"/>
<path d="M140.539 52.3772C140.539 52.3772 145.26 58.0614 144.001 69.0508C142.742 80.0402 144.945 90.6506 147.463 94.0611C149.981 97.4716 160.367 117.177 160.367 117.177C160.367 117.177 155.961 125.892 152.499 121.345C149.037 116.798 138.651 98.2295 138.651 98.2295C138.651 98.2295 129.209 75.8718 128.265 69.8087C127.32 63.7455 127.006 54.2719 129.524 52.3772C132.041 50.4825 140.539 52.3772 140.539 52.3772Z" fill="#3F3D56"/>
<path opacity="0.1" d="M148.344 14.8959C152.02 15.8129 151.655 15.9911 153.915 16.946C153.928 16.9005 153.94 16.8626 153.953 16.8247C154.299 15.8319 154.516 17.1355 155.017 17.1355C156.276 17.1355 150.61 10.6934 150.61 10.6934C150.61 10.6934 150.396 11.1709 150.028 11.8871C149.918 12.0955 149.798 12.3229 149.666 12.5616C149.556 12.7625 149.436 12.9747 149.311 13.1945L148.344 14.8959Z" fill="black"/>
<path d="M155.016 20.167C158.318 20.167 160.996 16.9435 160.996 12.9671C160.996 8.99068 158.318 5.76715 155.016 5.76715C151.713 5.76715 149.036 8.99068 149.036 12.9671C149.036 16.9435 151.713 20.167 155.016 20.167Z" fill="#A0616A"/>
<path d="M144.001 18.2723C144.001 18.2723 153.128 19.4091 155.016 24.3354C156.905 29.2617 143.371 53.1352 142.427 53.5141C141.483 53.8931 128.264 55.7878 128.264 55.7878C128.264 55.7878 128.894 31.5353 141.168 22.4407C141.168 22.4407 144.001 20.9249 144.001 18.2723Z" fill="#EA058D"/>
<path d="M149.036 20.9247C149.036 20.9247 155.961 24.3352 158.478 27.7457C160.996 31.1562 171.697 37.2193 171.697 37.2193C171.697 37.2193 170.753 42.1456 169.809 42.1456C168.864 42.1456 147.148 31.1562 144.945 30.3983C142.742 29.6404 144.001 20.5457 149.036 20.9247Z" fill="#EA058D"/>
<path d="M154.545 13.9144C154.545 13.9144 156.118 12.0196 152.971 10.5039C152.971 10.5039 156.118 8.98809 156.748 6.71442C157.377 4.44075 159.58 0.651304 161.469 6.71442C163.357 12.7775 166.819 20.7354 155.489 20.7354C155.489 20.7354 152.656 21.4933 152.656 18.4617C152.656 17.5793 152.827 16.7089 153.155 15.9197C153.483 15.1304 153.958 14.4438 154.545 13.9144Z" fill="#3F3D56"/>
</g>
<defs>
<clipPath id="clip0_2_477">
<rect width="210" height="171" fill="white"/>
</clipPath>
</defs>
</svg>
