<svg width="71" height="81" viewBox="0 0 71 81" fill="none" xmlns="http://www.w3.org/2000/svg">
<g clip-path="url(#clip0_2_426)" filter="url(#filter0_d_2_426)">
<path d="M19.8112 20.2292C23.6697 20.2292 26.7976 17.1824 26.7976 13.4239C26.7976 9.66548 23.6697 6.61865 19.8112 6.61865C15.9527 6.61865 12.8248 9.66548 12.8248 13.4239C12.8248 17.1824 15.9527 20.2292 19.8112 20.2292Z" fill="#3F3D56"/>
<path d="M59.8908 22.4975C63.7493 22.4975 66.8772 19.4507 66.8772 15.6922C66.8772 11.9338 63.7493 8.88696 59.8908 8.88696C56.0323 8.88696 52.9044 11.9338 52.9044 15.6922C52.9044 19.4507 56.0323 22.4975 59.8908 22.4975Z" fill="#3F3D56"/>
<path d="M60.0133 8.64844C58.6713 8.64845 57.3578 9.02496 56.2297 9.73293C55.1016 10.4409 54.2068 11.4504 53.6521 12.6407C54.8481 11.6029 56.3738 10.9971 57.9738 10.9246C59.5737 10.8521 61.1506 11.3174 62.4403 12.2424C63.73 13.1675 64.6542 14.4962 65.058 16.0059C65.4619 17.5157 65.3208 19.1147 64.6585 20.5352C65.7164 19.6181 66.4631 18.4093 66.7996 17.0693C67.1361 15.7293 67.0465 14.3213 66.5427 13.032C66.0388 11.7427 65.1446 10.6331 63.9785 9.85019C62.8124 9.06732 61.4295 8.64821 60.0133 8.64844Z" fill="#66024A"/>
<path d="M19.689 6.37976C21.031 6.37978 22.3445 6.75628 23.4726 7.46425C24.6007 8.17222 25.4955 9.1817 26.0502 10.372C24.8542 9.33427 23.3285 8.72842 21.7285 8.65592C20.1286 8.58343 18.5517 9.04869 17.262 9.97376C15.9723 10.8988 15.0481 12.2275 14.6443 13.7373C14.2404 15.247 14.3815 16.846 15.0438 18.2665C13.9859 17.3494 13.2392 16.1406 12.9027 14.8006C12.5662 13.4606 12.6558 12.0526 13.1596 10.7633C13.6635 9.47403 14.5577 8.36438 15.7238 7.58151C16.8899 6.79864 18.2728 6.37953 19.689 6.37976Z" fill="#66024A"/>
<path d="M40.0343 47.331C40.0372 50.8062 38.9818 54.2042 37.0015 57.0949C35.0212 59.9856 32.2051 62.2391 28.9095 63.5704C25.614 64.9016 21.9871 65.2506 18.4878 64.5734C14.9885 63.8961 11.7741 62.2229 9.25138 59.7655C6.72864 57.3082 5.01093 54.1771 4.31562 50.7686C3.62032 47.36 3.97865 43.8271 5.3453 40.617C6.71194 37.4068 9.02546 34.6637 11.9931 32.7348C14.9607 30.8058 18.4491 29.7777 22.0168 29.7806C24.3852 29.7728 26.7317 30.2214 28.9213 31.1006C31.1109 31.9798 33.1003 33.2723 34.775 34.9036C36.4497 36.5348 37.7765 38.4727 38.6791 40.6055C39.5818 42.7384 40.0423 45.0241 40.0343 47.331Z" fill="#3F3D56"/>
<path d="M40.0355 47.3309C40.0389 49.8432 39.4866 52.3267 38.4163 54.6125C35.3312 54.5723 32.2918 53.881 29.5075 52.5862C26.7231 51.2914 24.2601 49.4239 22.2881 47.1124C20.3162 44.801 18.8822 42.1006 18.085 39.1972C17.2878 36.2939 17.1464 33.2567 17.6705 30.295C20.3258 29.6547 23.096 29.6113 25.7711 30.1681C28.4463 30.7249 30.9563 31.8673 33.1112 33.5087C35.2661 35.1501 37.0093 37.2476 38.209 39.6423C39.4086 42.037 40.0332 44.6662 40.0355 47.3309Z" fill="#66024A"/>
<path d="M38.6872 51.9871C50.4657 51.9871 60.014 42.6862 60.014 31.213C60.014 19.7399 50.4657 10.439 38.6872 10.439C26.9087 10.439 17.3604 19.7399 17.3604 31.213C17.3604 42.6862 26.9087 51.9871 38.6872 51.9871Z" fill="#3F3D56"/>
<path d="M43.8692 31.9237C44.9738 30.4792 46.6212 29.5201 48.4505 29.2567C50.2798 28.9933 52.1417 29.447 53.6281 30.5186C54.4542 29.4384 54.9325 28.1437 55.0027 26.7985C55.0729 25.4533 54.7317 24.1181 54.0224 22.9619C53.313 21.8057 52.2674 20.8806 51.0179 20.3036C49.7685 19.7266 48.3713 19.5238 47.0034 19.7207C45.6355 19.9177 44.3584 20.5056 43.3337 21.4101C42.3091 22.3145 41.583 23.4948 41.2473 24.8014C40.9117 26.1081 40.9817 27.4823 41.4485 28.7502C41.9152 30.0181 42.7577 31.1225 43.8692 31.9237Z" fill="white"/>
<path d="M27.5685 33.237C28.6731 31.7924 30.3206 30.8333 32.1499 30.5699C33.9792 30.3065 35.8411 30.7603 37.3275 31.8318C38.1535 30.7516 38.6319 29.457 38.7021 28.1118C38.7722 26.7666 38.4311 25.4314 37.7217 24.2752C37.0124 23.119 35.9667 22.1938 34.7173 21.6168C33.4678 21.0399 32.0707 20.837 30.7028 21.034C29.3349 21.2309 28.0577 21.8189 27.0331 22.7233C26.0084 23.6277 25.2823 24.808 24.9467 26.1146C24.6111 27.4213 24.6811 28.7956 25.1478 30.0634C25.6145 31.3313 26.457 32.4358 27.5685 33.237Z" fill="white"/>
<path d="M32.1909 28.9449C33.6124 28.9449 34.7648 27.8224 34.7648 26.4377C34.7648 25.053 33.6124 23.9305 32.1909 23.9305C30.7693 23.9305 29.6169 25.053 29.6169 26.4377C29.6169 27.8224 30.7693 28.9449 32.1909 28.9449Z" fill="#3F3D56"/>
<path d="M48.8597 27.0344C50.2812 27.0344 51.4336 25.9119 51.4336 24.5272C51.4336 23.1425 50.2812 22.02 48.8597 22.02C47.4382 22.02 46.2858 23.1425 46.2858 24.5272C46.2858 25.9119 47.4382 27.0344 48.8597 27.0344Z" fill="#3F3D56"/>
<path d="M40.2802 33.2428C41.0249 33.2428 41.6285 32.6548 41.6285 31.9295C41.6285 31.2042 41.0249 30.6162 40.2802 30.6162C39.5356 30.6162 38.932 31.2042 38.932 31.9295C38.932 32.6548 39.5356 33.2428 40.2802 33.2428Z" fill="#FF6584"/>
<path d="M20.0568 69.1044V63.3293H18.0957V69.1044C17.5222 69.302 17.0257 69.6679 16.6745 70.1518C16.3233 70.6356 16.1347 71.2135 16.1346 71.8061V71.8061H22.0179V71.8061C22.0178 71.2135 21.8292 70.6356 21.478 70.1518C21.1268 69.6679 20.6303 69.302 20.0568 69.1044Z" fill="#3F3D56"/>
<path d="M27.2875 69.1044V63.3293H25.3264V69.1044C24.753 69.302 24.2564 69.6679 23.9052 70.1518C23.554 70.6356 23.3654 71.2135 23.3654 71.8061V71.8061H29.2486V71.8061C29.2486 71.2135 29.0599 70.6356 28.7087 70.1518C28.3575 69.6679 27.861 69.302 27.2875 69.1044Z" fill="#3F3D56"/>
<path d="M29.9676 12.4314C29.079 11.0379 28.4822 9.40086 28.6671 7.77031C28.852 6.13975 29.9486 4.54868 31.5629 4.0814C33.1773 3.61412 35.1771 4.58219 35.4814 6.19568C37.0983 3.4725 39.656 1.39757 42.698 0.341153C44.109 -0.143138 45.984 -0.252961 46.7998 0.968467C47.2036 1.57298 47.2468 2.39488 47.7877 2.88736C48.6356 3.65941 49.9953 3.11564 51.154 3.18163C52.7834 3.27443 54.0952 4.75572 54.3004 6.33301C54.5057 7.9103 53.7885 9.49539 52.7299 10.7056C51.6713 11.9157 50.2942 12.8135 48.936 13.6952" fill="#3F3D56"/>
<path d="M42.6248 36.7382C42.7125 36.6478 42.8032 36.5603 42.8978 36.4768C42.9397 36.4399 42.9823 36.4037 43.0255 36.3682C43.0524 36.346 43.0797 36.3242 43.1071 36.3027C43.1546 36.2654 43.1696 36.2563 43.1121 36.298C43.3204 36.1461 43.5399 36.0092 43.7688 35.8884C43.8741 35.8333 43.9813 35.7818 44.0904 35.7337C44.1161 35.7224 44.1419 35.7116 44.1676 35.7004C44.0521 35.7505 44.1427 35.7107 44.1724 35.6991C44.2378 35.6735 44.3037 35.6492 44.3701 35.6261C44.6165 35.5404 44.8686 35.4715 45.1247 35.4197C45.2427 35.3957 45.3614 35.3772 45.4804 35.3587C45.5605 35.3462 45.3796 35.3696 45.4603 35.3615C45.4955 35.3579 45.5307 35.3533 45.566 35.3498C45.6365 35.3426 45.7072 35.3367 45.778 35.332C46.0329 35.315 46.2886 35.3141 46.5436 35.3293C46.671 35.3369 46.7978 35.3495 46.9246 35.3641C46.7967 35.3494 46.9432 35.3675 46.9881 35.3747C47.0579 35.3858 47.1275 35.3982 47.1968 35.4119C47.446 35.4608 47.6913 35.5263 47.9313 35.6078C47.9911 35.6281 48.0506 35.6495 48.1096 35.672C48.1424 35.6844 48.175 35.6974 48.2076 35.7102C48.1911 35.7037 48.1002 35.6637 48.1923 35.7044C48.3076 35.7554 48.4219 35.8079 48.5338 35.8659C48.763 35.9864 48.9829 36.123 49.1919 36.2745C49.2555 36.32 49.1203 36.2168 49.1806 36.2665C49.2076 36.2887 49.2357 36.3098 49.2628 36.3319C49.3063 36.3673 49.3491 36.4035 49.3912 36.4405C49.4991 36.5351 49.6025 36.6346 49.702 36.7375C49.7929 36.8315 49.8803 36.9285 49.9643 37.0285C49.9631 37.0271 50.0588 37.1427 50.0079 37.0804C49.9652 37.0281 50.0256 37.1032 50.0352 37.1157C50.0859 37.1819 50.1352 37.2491 50.183 37.3174C50.3387 37.5405 50.4795 37.7732 50.6044 38.014C50.6637 38.128 50.7197 38.2435 50.7724 38.3606C50.784 38.3863 50.8242 38.4811 50.7806 38.3779C50.7924 38.4058 50.8042 38.4338 50.8158 38.4619C50.8447 38.5322 50.8725 38.6029 50.8993 38.674C51.0924 39.1962 51.2405 39.7331 51.342 40.2792C51.3687 40.4179 51.3931 40.557 51.4153 40.6965C51.4253 40.7587 51.4348 40.821 51.4439 40.8833C51.4436 40.8817 51.4649 41.0354 51.4539 40.9525C51.444 40.8788 51.4609 41.0082 51.4627 41.0221C51.4999 41.3128 51.5293 41.6045 51.5531 41.8966C51.5997 42.4696 51.6247 43.0439 51.6426 43.6183C51.688 45.0755 51.7267 46.5329 51.7687 47.9902L52.0257 56.9164L52.2827 65.8425L52.3146 66.9506C52.3146 67.0931 52.3727 67.2297 52.4762 67.3305C52.5796 67.4313 52.7199 67.4879 52.8662 67.4879C53.0125 67.4879 53.1528 67.4313 53.2562 67.3305C53.3596 67.2297 53.4177 67.0931 53.4177 66.9506L53.1536 57.7782L52.8913 48.6674L52.7592 44.0812C52.7239 42.8532 52.6731 41.6265 52.479 40.4108C52.1217 38.1719 51.0836 35.8444 48.8643 34.8277C46.7914 33.8782 44.2262 34.0984 42.4101 35.4791C42.2091 35.6315 42.0201 35.7984 41.8448 35.9784C41.7413 36.0792 41.6832 36.2158 41.6832 36.3583C41.6832 36.5008 41.7413 36.6375 41.8448 36.7382C41.9482 36.839 42.0885 36.8956 42.2348 36.8956C42.3811 36.8956 42.5214 36.839 42.6248 36.7382L42.6248 36.7382Z" fill="#66024A"/>
<path d="M46.7767 53.6587C46.6142 53.6589 46.4584 53.7218 46.3435 53.8337C46.2286 53.9457 46.164 54.0974 46.1638 54.2556L47.3893 72.3953C47.3886 72.4742 47.4039 72.5526 47.4344 72.6257C47.4649 72.6989 47.5099 72.7655 47.5668 72.8217C47.6238 72.8779 47.6916 72.9226 47.7663 72.9532C47.8411 72.9838 47.9213 72.9997 48.0023 73H58.0529C58.2154 72.9998 58.3712 72.9369 58.4861 72.825C58.601 72.7131 58.6656 72.5613 58.6658 72.4031L59.8917 54.2478C59.8897 54.0908 59.8243 53.9408 59.7095 53.8305C59.5947 53.7202 59.4399 53.6585 59.2786 53.6587H46.7767Z" fill="#E6E6E6"/>
<path d="M47.7461 54.554C47.6622 54.554 47.5791 54.5708 47.5021 54.6033C47.4252 54.6359 47.3559 54.6835 47.2985 54.7432C47.2412 54.8029 47.1971 54.8734 47.1689 54.9504C47.1407 55.0274 47.1291 55.1092 47.1347 55.1908L48.2616 71.5473C48.2724 71.6983 48.3414 71.8396 48.4549 71.943C48.5683 72.0463 48.7177 72.104 48.873 72.1044H57.1806C57.3359 72.104 57.4853 72.0463 57.5987 71.943C57.7121 71.8396 57.7812 71.6983 57.792 71.5473L58.9189 55.1908C58.9245 55.1092 58.9129 55.0274 58.8847 54.9504C58.8565 54.8734 58.8124 54.8029 58.755 54.7432C58.6977 54.6835 58.6284 54.6359 58.5514 54.6033C58.4745 54.5708 58.3914 54.554 58.3075 54.554H47.7461Z" fill="#66024A"/>
<path d="M51.4335 57.3599C51.3685 57.3599 51.3062 57.3851 51.2602 57.4299C51.2143 57.4747 51.1884 57.5353 51.1884 57.5986V58.9119C51.1884 58.9752 51.2143 59.0359 51.2602 59.0807C51.3062 59.1255 51.3685 59.1506 51.4335 59.1507H53.5171C53.5821 59.1506 53.6444 59.1255 53.6904 59.0807C53.7363 59.0359 53.7622 58.9752 53.7623 58.9119V57.5986C53.7622 57.5353 53.7363 57.4747 53.6904 57.4299C53.6444 57.3851 53.5821 57.3599 53.5171 57.3599H51.4335Z" fill="#E6E6E6"/>
<path d="M53.7628 60.8221C53.6978 60.8222 53.6355 60.8474 53.5896 60.8922C53.5436 60.9369 53.5178 60.9976 53.5177 61.0609V62.3742C53.5178 62.4375 53.5436 62.4982 53.5896 62.543C53.6355 62.5878 53.6978 62.6129 53.7628 62.613H55.8465C55.9115 62.6129 55.9738 62.5878 56.0197 62.543C56.0657 62.4982 56.0915 62.4375 56.0916 62.3742V61.0609C56.0915 60.9976 56.0657 60.9369 56.0197 60.8922C55.9738 60.8474 55.9115 60.8222 55.8465 60.8221H53.7628Z" fill="#E6E6E6"/>
<path d="M51.5568 63.6875C51.4918 63.6876 51.4295 63.7128 51.3835 63.7575C51.3376 63.8023 51.3117 63.863 51.3116 63.9263V65.2396C51.3117 65.3029 51.3376 65.3636 51.3835 65.4083C51.4295 65.4531 51.4918 65.4783 51.5568 65.4784H53.6404C53.7054 65.4783 53.7677 65.4531 53.8137 65.4083C53.8596 65.3636 53.8855 65.3029 53.8856 65.2396V63.9263C53.8855 63.863 53.8596 63.8023 53.8137 63.7575C53.7677 63.7128 53.7054 63.6876 53.6404 63.6875H51.5568Z" fill="#E6E6E6"/>
<path d="M11.9703 56.7819C12.6081 56.988 13.0573 57.5165 13.431 58.0346C13.8162 58.5687 14.1693 59.1486 14.6958 59.5658C14.9169 59.753 15.1764 59.8924 15.4569 59.9745C15.7375 60.0567 16.0328 60.0798 16.3233 60.0424C16.9005 59.9576 17.3899 59.5646 17.4777 58.9847C17.5933 58.2212 17.0447 57.5145 16.5635 56.9714L16.4335 57.2771C17.2003 57.3576 17.8669 57.7834 18.569 58.0575C19.2418 58.3201 20.0375 58.4634 20.7095 58.121C21.2252 57.8583 21.5467 57.3328 21.6557 56.7882C21.7671 56.1938 21.6739 55.5802 21.3905 55.0428C21.0327 54.3303 20.4461 53.7545 19.877 53.2L19.6982 53.4993C20.5442 53.623 21.4875 53.7384 22.2215 53.2089C22.5152 53.0073 22.7245 52.7096 22.8114 52.3701C22.8862 51.9949 22.8225 51.6061 22.6316 51.2722C22.2456 50.54 21.517 50.0238 20.8639 49.5326C19.3401 48.3851 17.6891 47.4075 15.9418 46.6183C15.7286 46.5217 15.5416 46.8304 15.7562 46.9275C17.2531 47.6046 18.6802 48.4194 20.018 49.3609C20.6616 49.8142 21.3418 50.2816 21.8781 50.8566C22.3334 51.3448 22.7482 52.0914 22.2509 52.6949C21.6659 53.4048 20.6075 53.2726 19.7959 53.1539C19.7571 53.1447 19.7162 53.148 19.6795 53.1633C19.6427 53.1786 19.612 53.205 19.5919 53.2386C19.5718 53.2722 19.5634 53.3113 19.5679 53.35C19.5724 53.3887 19.5897 53.4249 19.617 53.4532C20.4652 54.2798 21.4724 55.272 21.3249 56.5441C21.269 57.0263 21.0341 57.5189 20.5935 57.7739C19.9947 58.1206 19.2457 57.9422 18.6425 57.7025C17.9102 57.4115 17.2354 57.0031 16.4335 56.9189C16.2607 56.9008 16.2106 57.1198 16.3035 57.2246C16.6926 57.6638 17.1593 58.2352 17.1248 58.851C17.0959 59.3663 16.6346 59.6745 16.14 59.7037C14.8819 59.7778 14.2467 58.5018 13.6089 57.6651C13.2051 57.1356 12.7261 56.6491 12.068 56.4365C11.8429 56.3638 11.7464 56.7096 11.9703 56.7819H11.9703Z" fill="#66024A"/>
</g>
<defs>
<filter id="filter0_d_2_426" x="0" y="0" width="71" height="81" filterUnits="userSpaceOnUse" color-interpolation-filters="sRGB">
<feFlood flood-opacity="0" result="BackgroundImageFix"/>
<feColorMatrix in="SourceAlpha" type="matrix" values="0 0 0 0 0 0 0 0 0 0 0 0 0 0 0 0 0 0 127 0" result="hardAlpha"/>
<feOffset dy="4"/>
<feGaussianBlur stdDeviation="2"/>
<feComposite in2="hardAlpha" operator="out"/>
<feColorMatrix type="matrix" values="0 0 0 0 0 0 0 0 0 0 0 0 0 0 0 0 0 0 0.25 0"/>
<feBlend mode="normal" in2="BackgroundImageFix" result="effect1_dropShadow_2_426"/>
<feBlend mode="normal" in="SourceGraphic" in2="effect1_dropShadow_2_426" result="shape"/>
</filter>
<clipPath id="clip0_2_426">
<rect width="63" height="73" fill="white" transform="translate(4)"/>
</clipPath>
</defs>
</svg>
